<svg width="20" height="20" viewBox="0 0 20 20" fill="current" stroke="current" xmlns="http://www.w3.org/2000/svg">
<g id="Category">
<path id="Stroke 1 (Stroke)" fill-rule="evenodd" clip-rule="evenodd" d="M1.80276 2.93943C1.75297 3.33428 1.75001 3.82979 1.75001 4.5C1.75001 5.17286 1.75051 5.66863 1.79786 6.06555C1.84451 6.45665 1.9274 6.65107 2.01972 6.76683C2.10304 6.87131 2.26235 6.99694 2.6536 7.09464C3.05681 7.19532 3.64186 7.25 4.50001 7.25C5.35815 7.25 5.9432 7.19532 6.34642 7.09464C6.73766 6.99694 6.89697 6.87131 6.98029 6.76683C7.07261 6.65107 7.1555 6.45665 7.20216 6.06555C7.24951 5.66863 7.25001 5.17286 7.25001 4.5C7.25001 3.82979 7.24704 3.33428 7.19726 2.93943C7.14821 2.55042 7.06324 2.35427 6.96816 2.23636C6.88148 2.12889 6.71867 2.00281 6.32925 1.9052C5.92791 1.80461 5.34779 1.75 4.50001 1.75C3.65222 1.75 3.07211 1.80461 2.67077 1.9052C2.28134 2.00281 2.11853 2.12889 2.03185 2.23636C1.93677 2.35427 1.8518 2.55042 1.80276 2.93943ZM2.30609 0.450207C2.88649 0.304737 3.61184 0.25 4.50001 0.25C5.38817 0.25 6.11352 0.304737 6.69392 0.450207C7.28624 0.598663 7.78144 0.855356 8.13577 1.29473C8.4817 1.72367 8.62075 2.23844 8.68548 2.7518C8.74946 3.25931 8.75001 3.8576 8.75001 4.5C8.75001 4.51886 8.75001 4.53768 8.75001 4.55647C8.75006 5.17492 8.75011 5.75268 8.6916 6.24323C8.63061 6.75449 8.49682 7.27099 8.15302 7.70208C7.80023 8.14445 7.30398 8.40159 6.70981 8.54995C6.12762 8.69533 5.3974 8.75 4.50001 8.75C3.60261 8.75 2.87239 8.69533 2.2902 8.54995C1.69603 8.40159 1.19978 8.14445 0.84699 7.70208C0.503189 7.27099 0.369406 6.75449 0.308417 6.24323C0.249899 5.75268 0.249949 5.17492 0.250003 4.55647C0.250005 4.53768 0.250006 4.51886 0.250006 4.5C0.250006 3.8576 0.250552 3.25931 0.314537 2.7518C0.37926 2.23844 0.518313 1.72367 0.864241 1.29473C1.21858 0.855356 1.71378 0.598663 2.30609 0.450207Z" />
<path id="Stroke 3 (Stroke)" fill-rule="evenodd" clip-rule="evenodd" d="M12.8028 2.93943C12.753 3.33428 12.75 3.82979 12.75 4.5C12.75 5.17286 12.7505 5.66863 12.7979 6.06555C12.8445 6.45665 12.9274 6.65107 13.0197 6.76683C13.103 6.87131 13.2624 6.99694 13.6536 7.09464C14.0568 7.19532 14.6419 7.25 15.5 7.25C16.3581 7.25 16.9432 7.19532 17.3464 7.09464C17.7377 6.99694 17.897 6.87131 17.9803 6.76683C18.0726 6.65107 18.1555 6.45665 18.2022 6.06555C18.2495 5.66863 18.25 5.17286 18.25 4.5C18.25 3.82979 18.247 3.33428 18.1973 2.93943C18.1482 2.55042 18.0632 2.35427 17.9682 2.23636C17.8815 2.12889 17.7187 2.00281 17.3292 1.9052C16.9279 1.80461 16.3478 1.75 15.5 1.75C14.6522 1.75 14.0721 1.80461 13.6708 1.9052C13.2813 2.00281 13.1185 2.12889 13.0319 2.23636C12.9368 2.35427 12.8518 2.55042 12.8028 2.93943ZM13.3061 0.450207C13.8865 0.304737 14.6118 0.25 15.5 0.25C16.3882 0.25 17.1135 0.304737 17.6939 0.450207C18.2862 0.598663 18.7814 0.855356 19.1358 1.29473C19.4817 1.72367 19.6208 2.23844 19.6855 2.7518C19.7495 3.25931 19.75 3.8576 19.75 4.5C19.75 4.51886 19.75 4.53768 19.75 4.55647C19.7501 5.17492 19.7501 5.75268 19.6916 6.24323C19.6306 6.75449 19.4968 7.27099 19.153 7.70208C18.8002 8.14445 18.304 8.40159 17.7098 8.54995C17.1276 8.69533 16.3974 8.75 15.5 8.75C14.6026 8.75 13.8724 8.69533 13.2902 8.54995C12.696 8.40159 12.1998 8.14445 11.847 7.70208C11.5032 7.27099 11.3694 6.75449 11.3084 6.24323C11.2499 5.75268 11.2499 5.17492 11.25 4.55647C11.25 4.53768 11.25 4.51886 11.25 4.5C11.25 3.8576 11.2506 3.25931 11.3145 2.7518C11.3793 2.23844 11.5183 1.72367 11.8642 1.29473C12.2186 0.855356 12.7138 0.598663 13.3061 0.450207Z" />
<path id="Stroke 5 (Stroke)" fill-rule="evenodd" clip-rule="evenodd" d="M1.80276 13.9394C1.75297 14.3343 1.75001 14.8298 1.75001 15.5C1.75001 16.1729 1.75051 16.6686 1.79786 17.0655C1.84451 17.4567 1.9274 17.6511 2.01972 17.7668C2.10304 17.8713 2.26235 17.9969 2.6536 18.0946C3.05681 18.1953 3.64186 18.25 4.50001 18.25C5.35815 18.25 5.9432 18.1953 6.34642 18.0946C6.73766 17.9969 6.89697 17.8713 6.98029 17.7668C7.07261 17.6511 7.1555 17.4567 7.20216 17.0655C7.24951 16.6686 7.25001 16.1729 7.25001 15.5C7.25001 14.8298 7.24704 14.3343 7.19726 13.9394C7.14821 13.5504 7.06324 13.3543 6.96816 13.2364C6.88148 13.1289 6.71867 13.0028 6.32925 12.9052C5.92791 12.8046 5.34779 12.75 4.50001 12.75C3.65222 12.75 3.07211 12.8046 2.67077 12.9052C2.28134 13.0028 2.11853 13.1289 2.03185 13.2364C1.93677 13.3543 1.8518 13.5504 1.80276 13.9394ZM2.30609 11.4502C2.88649 11.3047 3.61184 11.25 4.50001 11.25C5.38817 11.25 6.11352 11.3047 6.69392 11.4502C7.28624 11.5987 7.78144 11.8554 8.13577 12.2947C8.4817 12.7237 8.62075 13.2384 8.68548 13.7518C8.74946 14.2593 8.75001 14.8576 8.75001 15.5C8.75001 15.5189 8.75001 15.5377 8.75001 15.5565C8.75006 16.1749 8.75011 16.7527 8.6916 17.2432C8.63061 17.7545 8.49682 18.271 8.15302 18.7021C7.80023 19.1445 7.30398 19.4016 6.70981 19.55C6.12762 19.6953 5.3974 19.75 4.50001 19.75C3.60261 19.75 2.87239 19.6953 2.2902 19.55C1.69603 19.4016 1.19978 19.1445 0.84699 18.7021C0.503189 18.271 0.369406 17.7545 0.308417 17.2432C0.249899 16.7527 0.249949 16.1749 0.250003 15.5565C0.250005 15.5377 0.250006 15.5189 0.250006 15.5C0.250006 14.8576 0.250552 14.2593 0.314537 13.7518C0.37926 13.2384 0.518313 12.7237 0.864241 12.2947C1.21858 11.8554 1.71378 11.5987 2.30609 11.4502Z" />
<path id="Stroke 7 (Stroke)" fill-rule="evenodd" clip-rule="evenodd" d="M12.8028 13.9394C12.753 14.3343 12.75 14.8298 12.75 15.5C12.75 16.1729 12.7505 16.6686 12.7979 17.0655C12.8445 17.4567 12.9274 17.6511 13.0197 17.7668C13.103 17.8713 13.2624 17.9969 13.6536 18.0946C14.0568 18.1953 14.6419 18.25 15.5 18.25C16.3581 18.25 16.9432 18.1953 17.3464 18.0946C17.7377 17.9969 17.897 17.8713 17.9803 17.7668C18.0726 17.6511 18.1555 17.4567 18.2022 17.0655C18.2495 16.6686 18.25 16.1729 18.25 15.5C18.25 14.8298 18.247 14.3343 18.1973 13.9394C18.1482 13.5504 18.0632 13.3543 17.9682 13.2364C17.8815 13.1289 17.7187 13.0028 17.3292 12.9052C16.9279 12.8046 16.3478 12.75 15.5 12.75C14.6522 12.75 14.0721 12.8046 13.6708 12.9052C13.2813 13.0028 13.1185 13.1289 13.0319 13.2364C12.9368 13.3543 12.8518 13.5504 12.8028 13.9394ZM13.3061 11.4502C13.8865 11.3047 14.6118 11.25 15.5 11.25C16.3882 11.25 17.1135 11.3047 17.6939 11.4502C18.2862 11.5987 18.7814 11.8554 19.1358 12.2947C19.4817 12.7237 19.6208 13.2384 19.6855 13.7518C19.7495 14.2593 19.75 14.8576 19.75 15.5C19.75 15.5189 19.75 15.5377 19.75 15.5565C19.7501 16.1749 19.7501 16.7527 19.6916 17.2432C19.6306 17.7545 19.4968 18.271 19.153 18.7021C18.8002 19.1445 18.304 19.4016 17.7098 19.55C17.1276 19.6953 16.3974 19.75 15.5 19.75C14.6026 19.75 13.8724 19.6953 13.2902 19.55C12.696 19.4016 12.1998 19.1445 11.847 18.7021C11.5032 18.271 11.3694 17.7545 11.3084 17.2432C11.2499 16.7527 11.2499 16.1749 11.25 15.5565C11.25 15.5377 11.25 15.5189 11.25 15.5C11.25 14.8576 11.2506 14.2593 11.3145 13.7518C11.3793 13.2384 11.5183 12.7237 11.8642 12.2947C12.2186 11.8554 12.7138 11.5987 13.3061 11.4502Z" />
</g>
</svg>
