<svg width="28" height="28" viewBox="0 0 28 28" fill="none" xmlns="http://www.w3.org/2000/svg">
<g id="Graph">
<path id="Path" d="M11.537 5.40729C11.6049 5.54551 11.6498 5.69353 11.6698 5.8457L12.0411 11.3656L12.2254 14.14C12.2273 14.4253 12.272 14.7088 12.3582 14.9813C12.5808 15.51 13.1162 15.846 13.6987 15.8226L22.5751 15.242C22.9595 15.2356 23.3307 15.3794 23.607 15.6416C23.8373 15.8601 23.9859 16.146 24.0327 16.4535L24.0485 16.6402C23.6812 21.7264 19.9455 25.9688 14.8698 27.0639C9.79407 28.159 4.58915 25.8456 2.08094 21.3798C1.35785 20.0823 0.906198 18.6563 0.752507 17.1852C0.688302 16.7498 0.660031 16.3099 0.66797 15.87C0.660043 10.4169 4.54329 5.70253 9.97911 4.56601C10.6333 4.46414 11.2747 4.81048 11.537 5.40729Z" fill="#F4F4F4"/>
<path id="Path_2" opacity="0.4" d="M15.16 0.667718C21.2399 0.822395 26.3498 5.19434 27.3333 11.083L27.3239 11.1265L27.2971 11.1897L27.3008 11.3631C27.2869 11.5929 27.1982 11.814 27.0453 11.9926C26.886 12.1786 26.6684 12.3053 26.4288 12.3545L26.2827 12.3746L16.0416 13.0381C15.701 13.0717 15.3618 12.9619 15.1085 12.7359C14.8974 12.5476 14.7624 12.2934 14.7243 12.0195L14.0369 1.79338C14.0249 1.7588 14.0249 1.72131 14.0369 1.68673C14.0463 1.40486 14.1704 1.13841 14.3814 0.946932C14.5924 0.755452 14.8729 0.654892 15.16 0.667718Z" fill="#F4F4F4"/>
</g>
</svg>
