<svg width="16" height="16" viewBox="0 0 16 16" fill="current" stroke="current" xmlns="http://www.w3.org/2000/svg">
<g id="help_outline">
<path id="Vector" d="M7.33325 12H8.66659V10.6667H7.33325V12ZM7.99992 1.33334C4.31992 1.33334 1.33325 4.32001 1.33325 8.00001C1.33325 11.68 4.31992 14.6667 7.99992 14.6667C11.6799 14.6667 14.6666 11.68 14.6666 8.00001C14.6666 4.32001 11.6799 1.33334 7.99992 1.33334ZM7.99992 13.3333C5.05992 13.3333 2.66659 10.94 2.66659 8.00001C2.66659 5.06001 5.05992 2.66668 7.99992 2.66668C10.9399 2.66668 13.3333 5.06001 13.3333 8.00001C13.3333 10.94 10.9399 13.3333 7.99992 13.3333ZM7.99992 4.00001C6.52659 4.00001 5.33325 5.19334 5.33325 6.66668H6.66659C6.66659 5.93334 7.26659 5.33334 7.99992 5.33334C8.73325 5.33334 9.33325 5.93334 9.33325 6.66668C9.33325 8.00001 7.33325 7.83334 7.33325 10H8.66659C8.66659 8.50001 10.6666 8.33334 10.6666 6.66668C10.6666 5.19334 9.47325 4.00001 7.99992 4.00001Z"/>
</g>
</svg>
