<svg width="24" height="24" viewBox="0 0 24 24" fill="current" stroke="current" xmlns="http://www.w3.org/2000/svg">
<g id="Type=Warning">
<path id="Vector" d="M12 4.23152L19.9002 18.7657H4.09977L12 4.23152ZM2.28471 17.6485C1.47686 19.1344 2.48406 21 4.09977 21H19.9002C21.5159 21 22.5231 19.1344 21.7153 17.6485L13.8151 3.11436C13.0072 1.62855 10.9928 1.62855 10.1849 3.11436L2.28471 17.6485ZM10.9508 9.82846V12.0628C10.9508 12.6772 11.423 13.1799 12 13.1799C12.577 13.1799 13.0492 12.6772 13.0492 12.0628V9.82846C13.0492 9.21402 12.577 8.7113 12 8.7113C11.423 8.7113 10.9508 9.21402 10.9508 9.82846ZM10.9508 15.4142H13.0492V17.6485H10.9508V15.4142Z" />
</g>
</svg>
